<svg style="fill-rule:evenodd;clip-rule:evenodd;stroke-linejoin:round;stroke-miterlimit:1.41421;" xml:space="preserve" xmlns:xlink="http://www.w3.org/1999/xlink" xmlns="http://www.w3.org/2000/svg" version="1.1" viewBox="0 0 1034 1034" height="100%" width="100%"><path style="fill:url(#_Linear1);fill-rule:nonzero;" d="M641.023,482.639l-207.044,67.607l-180.125,79.499l-50.392,13.304c-12.834,12.207 -26.291,24.572 -40.846,37.091c-15.962,13.771 -30.829,26.292 -42.255,35.367c-12.675,10.017 -31.455,28.796 -41,40.687c-14.242,17.84 -25.509,36.776 -30.361,51.332c-8.608,26.292 -4.38,52.895 12.208,77.467c21.283,31.297 63.694,63.221 113.145,84.974c25.197,11.114 67.607,25.354 99.531,33.334c53.05,13.459 155.713,28.014 212.206,30.206c11.423,0.469 26.761,0.469 27.385,0c1.254,-0.785 10.018,-17.528 20.191,-38.341c34.743,-70.894 59.781,-137.405 73.395,-194.212c8.138,-34.427 14.553,-80.281 18.777,-134.583c1.098,-15.181 1.565,-66.042 0.627,-83.258c-1.41,-28.169 -3.914,-51.016 -7.823,-73.395c-0.627,-3.287 -0.785,-6.261 -0.471,-6.417c0.624,-0.469 2.502,-1.095 28.011,-8.452l-5.162,-12.205l0,-0.003l0.003,0l0,-0.002Zm-47.261,27.702c1.878,0 6.884,48.043 8.135,78.405c0.315,6.416 0.156,10.641 -0.156,10.641c-1.25,0 -26.448,-14.865 -44.442,-26.133c-15.65,-9.86 -45.383,-29.579 -50.078,-33.334c-1.568,-1.095 -1.412,-1.251 11.423,-5.634c21.75,-7.357 73.397,-23.945 75.118,-23.945Zm-105.478,34.743c1.409,0 5.006,2.032 13.614,7.354c32.237,20.188 76.057,44.602 94.836,52.741c5.789,2.504 6.414,1.563 -6.886,10.642c-28.482,19.404 -64.009,38.496 -107.515,57.745c-7.666,3.443 -14.082,6.103 -14.238,6.103c-0.312,0 0.624,-3.91 1.875,-8.606c10.486,-38.97 16.434,-78.406 16.748,-110.018c0.156,-15.651 0.156,-15.651 1.566,-16.118c-0.315,0.157 -0.159,0.157 0,0.157Zm-21.753,8.293c0.936,0.937 0.312,35.994 -0.941,45.54c-2.816,22.849 -7.198,44.131 -14.395,68.077c-1.722,5.786 -3.289,10.641 -3.599,10.953c-0.629,0.781 -22.069,-20.189 -29.111,-28.326c-12.207,-14.085 -21.751,-28.17 -28.794,-41.941c-3.599,-7.042 -9.232,-20.812 -8.764,-21.283c2.504,-1.721 84.978,-33.645 85.604,-33.02Zm-102.35,40.219c0.156,0 0.312,0 0.471,0.156c0.312,0.313 1.409,2.818 2.348,5.634c5.006,13.615 16.272,33.646 25.978,46.479c10.641,14.086 24.571,29.108 36.148,38.967c3.758,3.13 7.199,6.102 7.667,6.573c0.941,0.94 1.254,0.782 -24.256,10.486c-29.574,11.267 -61.815,22.534 -98.748,34.427c-8.823,2.845 -17.638,5.714 -26.444,8.608c-1.411,0.471 -0.94,-0.313 3.128,-6.728c18.31,-28.64 46.165,-84.821 61.815,-124.571c2.661,-6.886 5.321,-13.771 5.792,-15.336c0.626,-2.193 1.407,-2.974 3.441,-4.07c1.095,-0.311 2.192,-0.625 2.66,-0.625Zm-31.296,12.989c0.469,0.315 -7.513,17.058 -15.338,32.394c-15.181,29.578 -31.769,58.688 -53.991,94.055c-3.755,6.102 -7.353,11.738 -7.824,12.363c-0.782,1.097 -1.096,0.782 -3.6,-4.068c-5.32,-10.486 -9.704,-23.946 -12.051,-36.309c-2.348,-12.208 -1.877,-33.489 0.784,-46.634c2.032,-9.702 1.878,-9.546 6.572,-11.894c20.031,-10.172 84.822,-40.533 85.448,-39.907Zm269.953,10.956l0,6.572c0,34.899 -3.755,82.786 -9.235,117.686c-0.939,6.102 -1.724,11.109 -1.878,11.267c0,0 -4.537,-1.25 -9.858,-2.818c-23.474,-7.356 -48.983,-18.154 -71.989,-30.828c-15.182,-8.294 -37.246,-21.911 -36.619,-22.538c0.154,-0.155 6.728,-3.598 14.395,-7.667c30.677,-15.962 60.096,-33.176 85.605,-50.234c9.547,-6.417 23.942,-16.744 27.075,-19.562l2.504,-1.878Zm-388.109,46.32c0.626,0 0.469,1.252 -0.47,6.886c-0.626,4.07 -1.408,11.582 -1.719,16.744c-1.255,22.849 2.504,39.752 13.771,62.912c3.13,6.417 5.635,11.738 5.476,11.893c-1.096,0.94 -104.693,31.302 -137.247,40.221c-9.702,2.659 -18.151,5.007 -18.78,5.162c-1.093,0.314 -1.251,0.158 -0.782,-2.505c3.599,-23.002 21.128,-53.05 45.54,-78.403c16.276,-16.901 29.266,-26.76 51.488,-39.438c15.962,-9.074 40.532,-22.688 42.41,-23.316c0.001,-0.156 0.157,-0.156 0.313,-0.156Zm244.133,43.662c0.156,-0.156 3.912,1.88 8.449,4.539c33.491,19.407 80.126,37.404 119.874,46.636l3.601,0.784l-5.009,2.814c-20.812,11.582 -89.201,40.063 -159.153,66.199c-10.174,3.754 -20.188,7.512 -22.069,8.293c-1.877,0.782 -3.599,1.252 -3.599,1.096c0,-0.158 2.818,-5.635 6.415,-12.363c19.562,-36.62 39.282,-81.221 49.297,-112.207c1.255,-2.973 2.035,-5.633 2.194,-5.791Zm-24.883,8.139c0.159,0.16 -1.094,3.443 -2.66,7.199c-13.614,33.02 -31.457,69.016 -54.304,109.391c-5.789,10.33 -10.642,18.624 -10.801,18.624c-0.153,0 -4.85,-2.818 -10.483,-6.261c-33.179,-20.345 -62.599,-45.383 -81.846,-69.641l-2.818,-3.443l14.239,-3.912c51.019,-13.927 94.366,-28.95 137.404,-47.416c6.105,-2.505 11.114,-4.541 11.269,-4.541Zm154.618,53.991c0,0 0.157,0.157 0,0c0.156,3.6 -7.826,35.838 -14.399,59.154c-5.477,19.562 -10.174,34.9 -18.779,61.971c-3.756,11.897 -7.04,21.753 -7.199,21.753c-0.156,0 -1.095,-0.156 -2.033,-0.467c-46.479,-8.453 -88.107,-20.19 -127.231,-35.838c-10.956,-4.383 -26.605,-11.426 -27.544,-12.208c-0.311,-0.316 9.079,-4.695 20.972,-9.86c71.205,-31.142 145.07,-66.51 170.422,-81.688c2.972,-1.879 5.32,-2.817 5.791,-2.817Zm-356.965,12.208c0.313,0.311 -19.562,28.951 -47.42,67.918c-9.702,13.615 -20.969,29.577 -25.194,35.523c-4.226,5.947 -10.641,15.338 -14.241,20.972l-6.576,10.172l-7.042,-5.946c-8.295,-6.888 -22.691,-21.597 -29.107,-29.735c-13.46,-16.744 -22.534,-34.428 -26.134,-50.545c-1.722,-7.514 -1.722,-11.271 -0.159,-11.738c2.347,-0.626 44.132,-10.486 83.258,-19.564c21.753,-5.006 46.947,-10.953 56.024,-13.144c9.077,-2.194 16.435,-3.913 16.591,-3.913Zm20.03,7.668l5.006,5.633c22.538,25.196 45.542,43.822 73.398,60.094c5.009,2.819 8.764,5.321 8.45,5.48c-1.093,0.782 -96.714,34.738 -141.002,50.075c-24.881,8.764 -45.383,15.806 -45.538,15.806c-0.156,0 -1.565,-0.938 -3.132,-2.034l-2.816,-2.035l4.538,-6.572c14.71,-21.283 33.179,-44.6 73.398,-93.114l27.698,-33.333Zm124.885,89.357c0.154,-0.155 7.04,2.347 15.49,5.48c20.347,7.667 36.463,12.517 58.061,17.996c26.605,6.73 65.102,13.303 87.795,15.18c3.443,0.311 5.321,0.626 4.695,1.096c-1.098,0.626 -24.1,8.295 -41.002,13.615c-26.919,8.45 -109.078,32.706 -176.057,51.956c-12.364,3.599 -23.006,6.573 -23.632,6.728c-1.563,0.315 -6.729,-1.096 -6.729,-1.722c0,-0.311 3.755,-5.162 8.295,-10.483c22.533,-26.918 44.914,-56.964 63.537,-85.447c5.163,-7.827 9.547,-14.242 9.547,-14.399Zm-27.546,0.784c0.156,0.156 -10.954,17.996 -30.357,48.668c-8.296,12.99 -17.53,27.7 -20.817,32.865c-3.13,5.007 -7.824,12.834 -10.483,17.214l-4.54,7.982l-2.346,-0.626c-5.636,-1.565 -45.228,-15.495 -55.714,-19.719c-12.99,-5.165 -26.448,-11.423 -36.465,-16.744c-12.518,-6.73 -28.166,-16.747 -26.915,-17.058c0.312,-0.156 21.753,-5.949 47.573,-12.989c68.546,-18.625 106.573,-29.422 131.458,-37.246c4.539,-1.409 8.45,-2.505 8.606,-2.347Zm194.837,45.694l0.156,0c0.627,1.567 -24.724,71.989 -33.961,94.211c-2.032,5.007 -2.812,6.262 -3.909,6.102c-2.661,-0.154 -39.436,-5.319 -61.818,-8.606c-38.965,-5.946 -104.381,-17.372 -120.812,-21.126l-3.755,-0.782l23.314,-5.324c50.081,-11.267 74.18,-17.37 98.593,-24.881c30.83,-9.39 61.349,-21.128 92.176,-35.524c4.851,-2.192 8.921,-3.913 10.016,-4.07Z"></path><path style="fill:url(#_Linear2);fill-rule:nonzero;" d="M427.564,0.008c-3.443,-0.467 -59.001,19.564 -94.837,34.116c-48.358,19.721 -85.915,38.502 -109.077,54.774c-8.606,6.106 -19.406,16.902 -21.125,21.127c-0.626,1.565 -0.94,3.443 -0.94,5.321l20.971,19.875l49.921,15.962l118.78,21.284l135.837,23.318l1.409,-11.737c-0.468,0 -0.783,-0.156 -1.248,-0.156l-17.846,-2.818l-3.596,-6.415c-18.468,-32.552 -38.812,-72.928 -50.705,-100.159c-9.232,-21.127 -17.997,-45.538 -22.849,-63.066c-2.661,-10.642 -2.972,-11.267 -4.691,-11.423l0,-0.004l-0.004,0l0,0.001Zm-2.507,7.984l0.161,0c0.154,0.154 0.78,4.539 1.407,9.7c2.658,21.913 7.513,43.036 15.18,65.885c5.789,17.216 5.789,16.277 -0.939,14.242c-15.962,-4.381 -87.48,-16.744 -139.28,-23.943c-8.295,-1.096 -15.337,-2.191 -15.337,-2.347c-0.626,-0.625 37.401,-20.502 54.147,-28.325c21.439,-9.861 80.281,-34.431 84.661,-35.212Zm-150.861,70.109l6.106,2.032c33.175,11.269 116.585,27.233 162.597,30.988c5.163,0.47 9.547,0.94 9.701,0.94c0.156,0.156 -4.223,2.504 -9.859,5.163c-22.22,11.111 -46.634,24.727 -63.536,35.213c-5.006,3.128 -9.547,5.634 -10.171,5.634c-0.627,0 -3.912,-0.627 -7.355,-1.097l-6.259,-0.94l-15.648,-15.337c-27.543,-26.759 -49.141,-47.416 -57.435,-55.242l-8.141,-7.354Zm-6.257,4.85l22.065,27.544c12.049,15.18 24.256,30.047 26.919,33.332c2.658,3.288 4.85,5.95 4.694,6.106c-0.626,0.469 -31.923,-5.636 -48.514,-9.39c-17.058,-3.914 -24.1,-5.791 -34.585,-9.076l-8.608,-2.818l0,-2.193c0.156,-10.485 13.46,-26.134 35.995,-42.095l2.034,-1.41Zm187.48,37.56c0.627,0 1.407,1.407 3.285,5.633c5.321,11.736 21.913,43.35 25.978,49.452c1.255,2.037 3.443,2.193 -18.62,-1.407c-53.051,-8.609 -70.111,-11.423 -70.111,-11.736c0,-0.156 1.565,-1.253 3.6,-2.349c16.432,-9.075 33.02,-20.656 47.732,-33.02c3.599,-2.974 6.886,-5.79 7.51,-6.261c0.156,-0.312 0.47,-0.468 0.626,-0.312Z"></path><path style="fill:url(#_Radial3);fill-rule:nonzero;" d="M203.617,107.834c0,0 -3.441,5.479 -0.155,13.618c2.036,5.006 7.982,11.108 14.71,17.369c0,0 69.64,67.918 78.091,77.622c38.496,44.444 55.242,88.263 56.808,148.671c0.939,38.81 -6.419,72.926 -24.727,112.52c-32.551,71.049 -101.254,149.454 -207.2,236.466l15.495,-5.165c10.015,-7.513 23.631,-15.492 55.555,-33.02c73.708,-40.379 156.651,-77.468 258.374,-115.652c146.475,-55.088 387.324,-119.565 524.411,-140.533l14.244,-2.192l-2.193,-3.443c-12.517,-19.406 -21.127,-31.455 -31.457,-44.288c-30.045,-37.246 -66.506,-67.448 -111.109,-92.488c-61.346,-34.271 -140.692,-61.031 -241.159,-80.907c-18.936,-3.757 -60.564,-10.955 -94.366,-16.119c-71.676,-11.109 -117.998,-18.779 -169.015,-27.542c-18.308,-3.132 -45.697,-7.825 -63.851,-11.737c-9.389,-2.036 -27.384,-6.261 -41.469,-11.112c-11.267,-4.384 -27.544,-8.766 -30.987,-22.068Zm40.378,39.125c0.154,-0.154 2.658,0.782 5.946,1.878c5.947,2.032 13.615,4.381 22.694,6.886c6.868,1.889 13.754,3.715 20.656,5.477c9.39,2.346 17.213,4.538 17.369,4.538c1.098,1.096 16.904,51.64 22.225,71.046c2.032,7.357 3.6,13.616 3.443,13.616c-0.161,0.158 -1.88,-2.504 -3.913,-6.103c-18.311,-32.238 -47.262,-64.945 -80.753,-91.238c-4.38,-3.126 -7.667,-5.944 -7.667,-6.1Zm76.995,21.283c0.783,0 4.226,0.47 8.449,1.408c26.605,5.947 74.337,15.024 104.852,20.189c5.165,0.781 9.235,1.722 9.235,2.033c0,0.315 -1.88,1.408 -4.228,2.662c-5.162,2.659 -25.977,15.021 -32.861,19.717c-17.373,11.58 -33.021,24.1 -44.289,35.367c-4.538,4.539 -8.452,8.295 -8.452,8.295c0,0 -0.936,-2.66 -1.722,-5.948c-5.631,-21.753 -17.37,-53.992 -28.011,-76.682c-1.722,-3.598 -3.132,-6.885 -3.132,-7.197c0,0.312 0,0.156 0.159,0.156Zm135.524,25.822c0.939,0.312 2.504,5.633 5.633,17.37c5.792,22.693 8.452,48.045 7.513,71.676c-0.314,6.572 -0.626,12.675 -0.941,13.459l-0.468,1.563l-8.137,-2.659c-16.746,-5.321 -43.975,-13.304 -67.291,-19.875c-13.305,-3.6 -24.1,-6.886 -24.1,-7.199c0,-0.94 19.406,-20.345 27.699,-27.699c15.803,-13.93 58.683,-47.106 60.092,-46.636Zm10.798,1.563c0.471,-0.467 64.79,10.642 94.055,16.276c21.754,4.225 53.365,10.799 55.242,11.582c0.939,0.312 -2.348,2.19 -12.834,6.884c-41.314,18.625 -71.988,35.367 -102.502,55.714c-7.981,5.321 -14.711,9.702 -14.867,9.702c-0.156,0 -0.313,-4.537 -0.313,-10.015c0,-29.734 -5.947,-59.781 -16.904,-85.133c-1.095,-2.504 -2.033,-4.851 -1.877,-5.01Zm166.354,32.866c0.47,0.469 -1.565,13.146 -3.443,20.657c-5.633,23.318 -20.813,57.906 -39.434,90.455c-3.289,5.79 -6.261,10.485 -6.577,10.641c-0.309,0.156 -4.535,-2.192 -9.388,-5.009c-18.153,-10.642 -38.809,-20.657 -61.346,-30.048c-6.257,-2.659 -11.736,-4.851 -11.893,-5.162c-1.097,-0.94 49.295,-34.273 75.9,-50.236c21.127,-12.832 55.555,-31.925 56.181,-31.298Zm11.893,1.877c1.409,0 29.892,7.826 44.756,12.208c36.778,10.955 79.031,26.447 106.574,38.966l11.423,5.167l-7.979,1.876c-67.291,15.492 -124.882,33.335 -180.439,55.869c-4.539,1.878 -8.608,3.443 -8.918,3.443c-0.314,0 1.251,-3.599 3.285,-7.982c16.746,-35.524 27.544,-72.613 30.202,-104.227c0.159,-2.974 0.625,-5.32 1.096,-5.32Zm-283.567,65.103c0.468,-0.471 22.222,4.695 33.959,7.979c17.84,5.009 55.711,17.684 55.711,18.624c0,0.156 -4.224,3.756 -9.23,8.139c-20.501,17.058 -40.221,35.052 -63.854,57.902c-7.042,6.731 -12.987,12.208 -13.299,12.208c-0.315,0 -0.468,-0.941 -0.315,-2.193c3.599,-26.292 2.819,-60.093 -2.189,-94.366c-0.471,-4.383 -0.94,-8.137 -0.783,-8.293Zm457.122,0.47c0.31,0.312 -10.017,16.587 -16.589,25.819c-9.388,13.458 -23.164,31.302 -54.307,70.425c-16.428,20.656 -34.898,43.975 -40.998,51.8c-6.263,7.824 -11.425,14.395 -11.584,14.395c-0.156,0 -2.187,-2.815 -4.38,-6.257c-17.528,-26.292 -38.499,-49.297 -63.382,-69.954c-4.694,-3.914 -9.856,-8.139 -11.578,-9.391c-1.722,-1.251 -3.132,-2.504 -3.132,-2.659c0,-0.469 26.602,-11.896 46.793,-20.032c35.369,-14.398 83.564,-31.612 119.718,-42.724c18.936,-5.946 39.124,-11.736 39.439,-11.422Zm12.049,3.128c0.624,-0.155 4.382,1.723 8.92,4.381c38.03,21.753 75.273,49.767 104.696,78.562c8.294,8.139 28.794,29.422 28.48,29.578c0,0 -7.199,0.626 -15.648,1.251c-65.884,5.009 -150.233,18.935 -231.299,38.497c-5.477,1.25 -10.327,2.346 -10.642,2.346c-0.309,0 5.791,-6.102 13.461,-13.456c47.573,-45.853 69.328,-74.805 94.991,-126.449c3.598,-7.666 6.729,-14.239 7.041,-14.71c-0.156,0 -0.156,0 0,0Zm-348.515,35.683c2.193,0.467 22.537,10.017 37.873,17.683c14.084,7.04 35.212,18.31 36.307,19.247c0.156,0.156 -7.357,4.069 -16.586,8.608c-29.424,14.711 -54.618,28.637 -80.911,44.6c-7.511,4.539 -13.771,8.297 -13.927,8.297c-0.626,0 -0.47,-0.629 3.756,-8.297c14.085,-25.663 25.351,-56.336 31.769,-86.228c0.624,-2.347 1.251,-3.91 1.719,-3.91Zm-20.345,3.754c0.471,0.471 -4.85,19.718 -8.135,30.204c-6.419,19.875 -17.216,44.757 -27.7,63.537c-2.507,4.38 -6.261,10.797 -8.296,14.395l-3.911,6.26l-8.764,-8.448c-10.171,-9.86 -18.467,-15.963 -29.107,-21.442c-4.228,-2.189 -7.513,-4.069 -7.513,-4.38c0,-1.252 26.761,-25.508 47.262,-43.036c14.709,-12.677 45.696,-37.559 46.164,-37.09Zm124.417,51.175l7.669,5.006c17.523,11.426 38.18,26.605 53.989,39.907c8.918,7.353 26.132,22.849 29.578,26.604l1.874,2.037l-12.673,3.598c-71.675,19.873 -127.074,37.557 -191.707,61.346c-7.199,2.659 -13.303,4.85 -13.773,4.85c-0.936,0 -1.721,0.782 14.4,-14.086c41.315,-38.025 77.933,-79.968 105.164,-120.813l5.479,-8.449Zm-32.709,8.138c0.312,0.311 -21.127,30.514 -33.961,47.573c-15.336,20.345 -42.567,54.46 -61.346,76.68c-7.823,9.235 -14.551,16.903 -14.865,17.06c-0.471,0.156 -0.627,-2.191 -0.627,-5.79c0,-18.938 -4.85,-39.126 -13.302,-56.339c-3.6,-7.198 -4.226,-8.92 -3.441,-9.702c2.973,-2.661 48.512,-28.639 77.306,-44.131c19.406,-10.329 49.763,-25.665 50.236,-25.351Zm-197.811,48.513c0.47,0 4.07,1.876 8.139,4.069c10.016,5.477 18.936,11.58 26.917,18.154c0.312,0.312 -3.756,3.6 -9.076,7.509c-14.868,10.642 -37.403,27.701 -50.546,38.187c-13.775,10.955 -14.241,11.267 -12.678,8.92c10.33,-15.806 15.492,-24.726 20.971,-36.15c4.85,-10.171 9.701,-22.222 13.144,-32.707c1.251,-4.539 2.817,-7.982 3.129,-7.982Zm52.741,41.314c0.78,-0.155 1.722,1.252 5.945,7.513c8.92,13.299 15.806,31.142 17.53,45.539l0.31,3.132l-21.437,8.294c-38.344,14.866 -73.709,29.578 -97.656,40.53c-6.727,3.131 -18.465,8.764 -26.132,12.522c-7.669,3.91 -13.929,6.884 -13.929,6.728c0,-0.155 4.85,-3.755 10.797,-8.138c46.795,-33.958 87.326,-71.206 117.685,-108.451c3.287,-3.913 6.262,-7.513 6.572,-7.669l0.315,0Zm-24.257,5.948c0.627,0.625 -17.213,20.812 -29.42,33.175c-30.204,30.831 -60.095,54.933 -97.185,78.407c-4.695,2.973 -8.919,5.632 -9.39,5.947c-1.096,0.626 0.312,-0.94 16.588,-18.625c10.33,-11.111 18.154,-20.501 27.074,-32.08c5.947,-7.666 7.043,-8.763 15.651,-14.869c23.006,-16.588 76.056,-52.583 76.682,-51.955Z"></path><defs><linearGradient gradientTransform="matrix(74.8668,-44.2376,44.2376,74.8668,200.367,931.59)" gradientUnits="userSpaceOnUse" y2="0" x2="1" y1="0" x1="0" id="_Linear1"><stop style="stop-color:#909ca9;stop-opacity:1" offset="0"></stop><stop style="stop-color:#ededee;stop-opacity:1" offset="1"></stop></linearGradient><linearGradient gradientTransform="matrix(60.2397,0,0,60.2397,202.081,97.5905)" gradientUnits="userSpaceOnUse" y2="0" x2="1" y1="0" x1="0" id="_Linear2"><stop style="stop-color:#939fab;stop-opacity:1" offset="0"></stop><stop style="stop-color:#dcdee1;stop-opacity:1" offset="1"></stop></linearGradient><radialGradient gradientTransform="matrix(-76.8041,-11.5368,-23.3329,153.608,506.037,373.868)" gradientUnits="userSpaceOnUse" r="1" cy="0" cx="0" id="_Radial3"><stop style="stop-color:#ee352c;stop-opacity:1" offset="0"></stop><stop style="stop-color:#a91d22;stop-opacity:1" offset="1"></stop></radialGradient></defs></svg>