<svg xmlns="http://www.w3.org/2000/svg" width="160" height="40" viewBox="0 0 160 40" role="img" aria-label="WrangleWorks">
  <rect width="160" height="40" rx="8" fill="#111827"/>
  <path d="M18 12c4 0 7 3 7 7s-3 7-7 7-7-3-7-7 3-7 7-7Zm0 3a4 4 0 1 0 0 8 4 4 0 0 0 0-8Z" fill="#F9FAFB"/>
  <path d="M34 13h3l4 14h-3l-1-4h-3l-1 4h-3l4-14Zm1 7h2l-1-4-1 4Z" fill="#F9FAFB"/>
  <text x="52" y="26" font-family="ui-sans-serif, system-ui, -apple-system, Segoe UI, Roboto, Helvetica, Arial" font-size="16" fill="#F9FAFB">WrangleWorks</text>
</svg>
